<svg id="Capa_1" enable-background="new 0 0 512 512" height="512" viewBox="0 0 512 512" width="512" xmlns="http://www.w3.org/2000/svg"><path d="m512 275.26c0 51.5-41.89 93.39-93.39 93.39h-325.22c-51.49 0-93.39-41.89-93.39-93.39 0-51.39 41.73-93.22 93.09-93.39 5.92-69.42 64.32-124.11 135.25-124.11 9.39 0 18.63.94 27.62 2.79 19.53 4.02 37.89 12.33 54.12 24.59 17.6 13.3 31.79 30.91 41.15 50.77 10.16-4.97 21.39-7.6 32.92-7.6 19.56 0 38.07 7.49 52.13 21.09 11.58 11.21 19.13 25.58 21.78 41.23 32.63 15.19 53.94 48.07 53.94 84.63z" fill="#d8cbc6"/><path d="m512 275.26c0 51.5-41.89 93.39-93.39 93.39h-162.65v-308.1c19.53 4.02 37.89 12.33 54.12 24.59 17.6 13.3 31.79 30.91 41.15 50.77 10.16-4.97 21.39-7.6 32.92-7.6 19.56 0 38.07 7.49 52.13 21.09 11.58 11.21 19.13 25.58 21.78 41.23 32.63 15.19 53.94 48.07 53.94 84.63z" fill="#9c9595"/><path d="m466.99 382.54c0 39.53-32.17 71.7-71.7 71.7h-235.24c-39.53 0-71.7-32.17-71.7-71.7 0-38.21 30.04-69.53 67.73-71.59 6.17-50.58 49.37-89.88 101.58-89.88 6.79 0 13.48.65 20.01 1.94 15.03 2.96 29.16 9.28 41.62 18.7 12.17 9.2 22.19 21.14 29.21 34.62 6.88-2.77 14.29-4.23 21.86-4.23 28.21 0 51.66 19.71 57.17 46.4 23.94 12.05 39.46 36.7 39.46 64.04z" fill="#fff1f1"/><path d="m466.99 382.54c0 39.53-32.17 71.7-71.7 71.7h-117.62v-231.23c15.03 2.96 29.16 9.28 41.62 18.7 12.17 9.2 22.19 21.14 29.21 34.62 6.88-2.77 14.29-4.23 21.86-4.23 28.21 0 51.66 19.71 57.17 46.4 23.94 12.05 39.46 36.7 39.46 64.04z" fill="#ebded9"/></svg>